<?xml version="1.0" encoding="UTF-8" standalone="no"?>
<!-- Created with Inkscape (http://www.inkscape.org/) -->

<svg
   width="200mm"
   height="200mm"
   viewBox="0 0 200 200"
   version="1.1"
   id="svg1"
   inkscape:version="1.4.3 (0d15f75042, 2025-12-25)"
   sodipodi:docname="icon.svg"
   xmlns:inkscape="http://www.inkscape.org/namespaces/inkscape"
   xmlns:sodipodi="http://sodipodi.sourceforge.net/DTD/sodipodi-0.dtd"
   xmlns="http://www.w3.org/2000/svg"
   xmlns:svg="http://www.w3.org/2000/svg">
  <sodipodi:namedview
     id="namedview1"
     pagecolor="#ffffff"
     bordercolor="#000000"
     borderopacity="0.25"
     inkscape:showpageshadow="2"
     inkscape:pageopacity="0.0"
     inkscape:pagecheckerboard="0"
     inkscape:deskcolor="#d1d1d1"
     inkscape:document-units="mm"
     inkscape:zoom="0.38299634"
     inkscape:cx="-220.62874"
     inkscape:cy="317.23541"
     inkscape:window-width="1420"
     inkscape:window-height="737"
     inkscape:window-x="0"
     inkscape:window-y="0"
     inkscape:window-maximized="1"
     inkscape:current-layer="layer1" />
  <defs
     id="defs1">
    <inkscape:path-effect
       effect="fillet_chamfer"
       id="path-effect2"
       is_visible="true"
       lpeversion="1"
       nodesatellites_param="F,0,0,1,0,0,0,1 @ F,0,0,1,0,0,0,1 @ F,0,0,1,0,0,0,1 @ F,0,0,1,0,0,0,1"
       radius="0"
       unit="px"
       method="auto"
       mode="F"
       chamfer_steps="1"
       flexible="false"
       use_knot_distance="true"
       apply_no_radius="true"
       apply_with_radius="true"
       only_selected="false"
       hide_knots="false" />
    <inkscape:path-effect
       effect="fillet_chamfer"
       id="path-effect1"
       is_visible="true"
       lpeversion="1"
       nodesatellites_param="F,0,0,1,0,0,0,1 @ F,0,0,1,0,0,0,1 @ F,0,0,1,0,0,0,1 @ F,0,0,1,0,0,0,1"
       radius="0"
       unit="px"
       method="auto"
       mode="F"
       chamfer_steps="1"
       flexible="false"
       use_knot_distance="true"
       apply_no_radius="true"
       apply_with_radius="true"
       only_selected="false"
       hide_knots="false" />
  </defs>
  <g
     inkscape:label="Layer 1"
     inkscape:groupmode="layer"
     id="layer1">
    <rect
       style="fill:#000000;stroke-width:0.264583"
       id="rect2"
       width="190"
       height="190"
       x="5"
       y="5"
       rx="5" />
    <path
       d="m 39.375432,111.93525 -0.16299,0.16299 h -0.16299 q -1.46691,0 -2.77083,-0.32598 -1.14093,-0.48897 -2.11887,-1.14093 -0.97794,-0.81495 -1.79289,-1.79289 -0.65196,-0.97794 -1.14093,-2.11887 -0.32598,-1.30392 -0.32598,-2.77083 v -0.16299 l 0.16299,-0.16299 h 8.31249 v 0 q 0,0 0,0 0,0 0,0 0,0 0,0 0,0 0,0 0,0 0,0 v 0 z m -0.65196,0 v -8.31249 0 q 0,0 0,0 0,0 0,0 0,0 0,0 0,0 0,0 0,0 0,0 v 0 h 8.31249 l 0.16299,0.16299 v 0.16299 q 0,1.46691 -0.48897,2.77083 -0.32598,1.14093 -1.14093,2.11887 -0.65196,0.97794 -1.6299,1.79289 -0.97794,0.65196 -2.28186,1.14093 -1.14093,0.32598 -2.60784,0.32598 h -0.16299 z m 0,-15.973018 0.16299,-0.16299 h 0.16299 q 1.46691,0 2.60784,0.48897 1.30392,0.32598 2.28186,1.14093 0.97794,0.65196 1.6299,1.6299 0.81495,0.977938 1.14093,2.281858 0.48897,1.14093 0.48897,2.60784 v 0.16299 l -0.16299,0.16299 h -8.31249 v 0 q 0,0 0,0 0,0 0,0 0,0 0,0 0,0 0,0 0,0 0,0 v 0 z m 0.65196,0 v 8.312488 0 q 0,0 0,0 0,0 0,0 0,0 0,0 0,0 0,0 0,0 0,0 v 0 h -8.31249 l -0.16299,-0.16299 v -0.16299 q 0,-1.46691 0.32598,-2.60784 0.48897,-1.30392 1.14093,-2.281858 0.81495,-0.97794 1.79289,-1.6299 0.97794,-0.81495 2.11887,-1.14093 1.30392,-0.48897 2.77083,-0.48897 h 0.16299 z m 0,-0.32598 -0.16299,0.16299 h -0.16299 q -1.46691,0 -2.77083,-0.32598 -1.14093,-0.48897 -2.11887,-1.14093 -0.97794,-0.81495 -1.79289,-1.79289 -0.65196,-0.977941 -1.14093,-2.118871 -0.32598,-1.30392 -0.32598,-2.77083 v -0.16299 l 0.16299,-0.16299 h 8.31249 v 0 q 0,0 0,0 0,0 0,0 0,0 0,0 0,0 0,0 0,0 0,0 v 0 z m -0.65196,0 v -8.312491 0 q 0,0 0,0 0,0 0,0 0,0 0,0 0,0 0,0 0,0 0,0 v 0 h 8.31249 l 0.16299,0.16299 v 0.16299 q 0,1.46691 -0.48897,2.77083 -0.32598,1.14093 -1.14093,2.118871 -0.65196,0.97794 -1.6299,1.79289 -0.97794,0.65196 -2.28186,1.14093 -1.14093,0.32598 -2.60784,0.32598 h -0.16299 z m 0,-15.973021 0.16299,-0.16299 h 0.16299 q 1.46691,0 2.60784,0.48897 1.30392,0.32598 2.28186,1.14093 0.97794,0.65196 1.6299,1.6299 0.81495,0.97794 1.14093,2.28186 0.48897,1.14093 0.48897,2.60784 v 0.16299 l -0.16299,0.16299 h -8.31249 v 0 q 0,0 0,0 0,0 0,0 0,0 0,0 0,0 0,0 0,0 0,0 v 0 z m 0.65196,0 v 8.31249 0 q 0,0 0,0 0,0 0,0 0,0 0,0 0,0 0,0 0,0 0,0 v 0 h -8.31249 l -0.16299,-0.16299 v -0.16299 q 0,-1.46691 0.32598,-2.60784 0.48897,-1.30392 1.14093,-2.28186 0.81495,-0.97794 1.79289,-1.6299 0.97794,-0.81495 2.11887,-1.14093 1.30392,-0.48897 2.77083,-0.48897 h 0.16299 z m 0,-0.32598 -0.16299,0.16299 h -0.16299 q -1.46691,0 -2.77083,-0.32598 -1.14093,-0.48897 -2.11887,-1.14093 -0.97794,-0.81495 -1.79289,-1.79289 -0.65196,-0.97794 -1.14093,-2.11887 -0.32598,-1.30392 -0.32598,-2.77083 v -0.16299 l 0.16299,-0.16299 h 8.31249 v 0 q 0,0 0,0 0,0 0,0 0,0 0,0 0,0 0,0 0,0 0,0 v 0 z m -0.65196,0 v -8.31249 0 q 0,0 0,0 0,0 0,0 0,0 0,0 0,0 0,0 0,0 0,0 v 0 h 8.31249 l 0.16299,0.16299 v 0.16299 q 0,1.46691 -0.48897,2.77083 -0.32598,1.14093 -1.14093,2.11887 -0.65196,0.97794 -1.6299,1.79289 -0.97794,0.65196 -2.28186,1.14093 -1.14093,0.32598 -2.60784,0.32598 h -0.16299 z m 0,-15.97302 0.16299,-0.16299 h 0.16299 q 1.46691,0 2.60784,0.48897 1.30392,0.32598 2.28186,1.14093 0.97794,0.65196 1.6299,1.6299 0.81495,0.97794 1.14093,2.28186 0.48897,1.14093 0.48897,2.60784 v 0.16299 l -0.16299,0.16299 h -8.31249 v 0 q 0,0 0,0 0,0 0,0 0,0 0,0 0,0 0,0 0,0 0,0 v 0 z m 0.65196,0 v 8.31249 0 q 0,0 0,0 0,0 0,0 0,0 0,0 0,0 0,0 0,0 0,0 v 0 h -8.31249 l -0.16299,-0.16299 v -0.16299 q 0,-1.46691 0.32598,-2.60784 0.48897,-1.30392 1.14093,-2.28186 0.81495,-0.97794 1.79289,-1.6299 0.97794,-0.81495 2.11887,-1.14093 1.30392,-0.48897 2.77083,-0.48897 h 0.16299 z m 0,-0.32598 -0.16299,0.16299 h -0.16299 q -1.46691,0 -2.77083,-0.32598 -1.14093,-0.48897 -2.11887,-1.140931 -0.97794,-0.81495 -1.79289,-1.79289 -0.65196,-0.97794 -1.14093,-2.11887 -0.32598,-1.30392 -0.32598,-2.77083 v -0.16299 l 0.16299,-0.16299 h 8.31249 v 0 q 0,0 0,0 0,0 0,0 0,0 0,0 0,0 0,0 0,0 0,0 v 0 z m -0.65196,0 v -8.312491 0 q 0,0 0,0 0,0 0,0 0,0 0,0 0,0 0,0 0,0 0,0 v 0 h 8.31249 l 0.16299,0.16299 v 0.16299 q 0,1.46691 -0.48897,2.77083 -0.32598,1.14093 -1.14093,2.11887 -0.65196,0.97794 -1.6299,1.79289 -0.97794,0.651961 -2.28186,1.140931 -1.14093,0.32598 -2.60784,0.32598 h -0.16299 z m 0,-15.973021 0.16299,-0.16299 h 0.16299 q 1.46691,0 2.60784,0.48897 1.30392,0.32598 2.28186,1.14093 0.97794,0.65196 1.6299,1.6299 0.81495,0.97794 1.14093,2.28186 0.48897,1.14093 0.48897,2.60784 v 0.16299 l -0.16299,0.16299 h -8.31249 v 0 q 0,0 0,0 0,0 0,0 0,0 0,0 0,0 0,0 0,0 0,0 v 0 z m 0.65196,0 v 8.31249 0 q 0,0 0,0 0,0 0,0 0,0 0,0 0,0 0,0 0,0 0,0 v 0 h -8.31249 l -0.16299,-0.16299 v -0.16299 q 0,-1.46691 0.32598,-2.60784 0.48897,-1.30392 1.14093,-2.28186 0.81495,-0.97794 1.79289,-1.6299 0.97794,-0.81495 2.11887,-1.14093 1.30392,-0.48897 2.77083,-0.48897 h 0.16299 z m 16.299001,81.16902 -0.16299,0.16299 h -0.16299 q -1.46691,0 -2.77083,-0.32598 -1.14093,-0.48897 -2.11887,-1.14093 -0.97794,-0.81495 -1.79289,-1.79289 -0.65196,-0.97794 -1.140931,-2.11887 -0.32598,-1.30392 -0.32598,-2.77083 v -0.16299 l 0.16299,-0.16299 h 8.312491 v 0 q 0,0 0,0 0,0 0,0 0,0 0,0 0,0 0,0 0,0 0,0 v 0 z m -0.65196,0 v -8.31249 0 q 0,0 0,0 0,0 0,0 0,0 0,0 0,0 0,0 0,0 0,0 v 0 h 8.31249 l 0.16299,0.16299 v 0.16299 q 0,1.46691 -0.48897,2.77083 -0.32598,1.14093 -1.14093,2.11887 -0.65196,0.97794 -1.6299,1.79289 -0.97794,0.65196 -2.28186,1.14093 -1.14093,0.32598 -2.60784,0.32598 h -0.16299 z m 0,-15.97302 0.16299,-0.16299 h 0.16299 q 1.46691,0 2.60784,0.48897 1.30392,0.32598 2.28186,1.14093 0.97794,0.65196 1.6299,1.6299 0.81495,0.97794 1.14093,2.28186 0.48897,1.14093 0.48897,2.60784 v 0.16299 l -0.16299,0.16299 h -8.31249 v 0 q 0,0 0,0 0,0 0,0 0,0 0,0 0,0 0,0 0,0 0,0 v 0 z m 0.65196,0 v 8.31249 0 q 0,0 0,0 0,0 0,0 0,0 0,0 0,0 0,0 0,0 0,0 v 0 h -8.312491 l -0.16299,-0.16299 v -0.16299 q 0,-1.46691 0.32598,-2.60784 0.488971,-1.30392 1.140931,-2.28186 0.81495,-0.97794 1.79289,-1.6299 0.97794,-0.81495 2.11887,-1.14093 1.30392,-0.48897 2.77083,-0.48897 h 0.16299 z m 0,-0.32598 -0.16299,0.16299 h -0.16299 q -1.46691,0 -2.77083,-0.32598 -1.14093,-0.48897 -2.11887,-1.14093 -0.97794,-0.81495 -1.79289,-1.79289 -0.65196,-0.97794 -1.140931,-2.11887 -0.32598,-1.30392 -0.32598,-2.77083 v -0.16299 l 0.16299,-0.16299 h 8.312491 v 0 q 0,0 0,0 0,0 0,0 0,0 0,0 0,0 0,0 0,0 0,0 v 0 z m -0.65196,0 v -8.31249 0 q 0,0 0,0 0,0 0,0 0,0 0,0 0,0 0,0 0,0 0,0 v 0 h 8.31249 l 0.16299,0.16299 v 0.16299 q 0,1.46691 -0.48897,2.77083 -0.32598,1.14093 -1.14093,2.11887 -0.65196,0.97794 -1.6299,1.79289 -0.97794,0.65196 -2.28186,1.14093 -1.14093,0.32598 -2.60784,0.32598 h -0.16299 z m 0,-15.973018 0.16299,-0.16299 h 0.16299 q 1.46691,0 2.60784,0.48897 1.30392,0.32598 2.28186,1.14093 0.97794,0.65196 1.6299,1.6299 0.81495,0.977938 1.14093,2.281858 0.48897,1.14093 0.48897,2.60784 v 0.16299 l -0.16299,0.16299 h -8.31249 v 0 q 0,0 0,0 0,0 0,0 0,0 0,0 0,0 0,0 0,0 0,0 v 0 z m 0.65196,0 v 8.312488 0 q 0,0 0,0 0,0 0,0 0,0 0,0 0,0 0,0 0,0 0,0 v 0 h -8.312491 l -0.16299,-0.16299 v -0.16299 q 0,-1.46691 0.32598,-2.60784 0.488971,-1.30392 1.140931,-2.281858 0.81495,-0.97794 1.79289,-1.6299 0.97794,-0.81495 2.11887,-1.14093 1.30392,-0.48897 2.77083,-0.48897 h 0.16299 z m 0,-0.32598 -0.16299,0.16299 h -0.16299 q -1.46691,0 -2.77083,-0.32598 -1.14093,-0.48897 -2.11887,-1.14093 -0.97794,-0.81495 -1.79289,-1.79289 -0.65196,-0.977941 -1.140931,-2.118871 -0.32598,-1.30392 -0.32598,-2.77083 v -0.16299 l 0.16299,-0.16299 h 8.312491 v 0 q 0,0 0,0 0,0 0,0 0,0 0,0 0,0 0,0 0,0 0,0 v 0 z m -0.65196,0 v -8.312491 0 q 0,0 0,0 0,0 0,0 0,0 0,0 0,0 0,0 0,0 0,0 v 0 h 8.31249 l 0.16299,0.16299 v 0.16299 q 0,1.46691 -0.48897,2.77083 -0.32598,1.14093 -1.14093,2.118871 -0.65196,0.97794 -1.6299,1.79289 -0.97794,0.65196 -2.28186,1.14093 -1.14093,0.32598 -2.60784,0.32598 h -0.16299 z m 0,-15.973021 0.16299,-0.16299 h 0.16299 q 1.46691,0 2.60784,0.48897 1.30392,0.32598 2.28186,1.14093 0.97794,0.65196 1.6299,1.6299 0.81495,0.97794 1.14093,2.28186 0.48897,1.14093 0.48897,2.60784 v 0.16299 l -0.16299,0.16299 h -8.31249 v 0 q 0,0 0,0 0,0 0,0 0,0 0,0 0,0 0,0 0,0 0,0 v 0 z m 0.65196,0 v 8.31249 0 q 0,0 0,0 0,0 0,0 0,0 0,0 0,0 0,0 0,0 0,0 v 0 h -8.312491 l -0.16299,-0.16299 v -0.16299 q 0,-1.46691 0.32598,-2.60784 0.488971,-1.30392 1.140931,-2.28186 0.81495,-0.97794 1.79289,-1.6299 0.97794,-0.81495 2.11887,-1.14093 1.30392,-0.48897 2.77083,-0.48897 h 0.16299 z m 0,-0.32598 -0.16299,0.16299 h -0.16299 q -1.46691,0 -2.77083,-0.32598 -1.14093,-0.48897 -2.11887,-1.14093 -0.97794,-0.81495 -1.79289,-1.79289 -0.65196,-0.97794 -1.140931,-2.11887 -0.32598,-1.30392 -0.32598,-2.77083 v -0.16299 l 0.16299,-0.16299 h 8.312491 v 0 q 0,0 0,0 0,0 0,0 0,0 0,0 0,0 0,0 0,0 0,0 v 0 z m -0.65196,0 v -8.31249 0 q 0,0 0,0 0,0 0,0 0,0 0,0 0,0 0,0 0,0 0,0 v 0 h 8.31249 l 0.16299,0.16299 v 0.16299 q 0,1.46691 -0.48897,2.77083 -0.32598,1.14093 -1.14093,2.11887 -0.65196,0.97794 -1.6299,1.79289 -0.97794,0.65196 -2.28186,1.14093 -1.14093,0.32598 -2.60784,0.32598 h -0.16299 z m 0,-15.97302 0.16299,-0.16299 h 0.16299 q 1.46691,0 2.60784,0.48897 1.30392,0.32598 2.28186,1.14093 0.97794,0.65196 1.6299,1.6299 0.81495,0.97794 1.14093,2.28186 0.48897,1.14093 0.48897,2.60784 v 0.16299 l -0.16299,0.16299 h -8.31249 v 0 q 0,0 0,0 0,0 0,0 0,0 0,0 0,0 0,0 0,0 0,0 v 0 z m 0.65196,0 v 8.31249 0 q 0,0 0,0 0,0 0,0 0,0 0,0 0,0 0,0 0,0 0,0 v 0 h -8.312491 l -0.16299,-0.16299 v -0.16299 q 0,-1.46691 0.32598,-2.60784 0.488971,-1.30392 1.140931,-2.28186 0.81495,-0.97794 1.79289,-1.6299 0.97794,-0.81495 2.11887,-1.14093 1.30392,-0.48897 2.77083,-0.48897 h 0.16299 z m 0,-0.32598 -0.16299,0.16299 h -0.16299 q -1.46691,0 -2.77083,-0.32598 -1.14093,-0.48897 -2.11887,-1.140931 -0.97794,-0.81495 -1.79289,-1.79289 -0.65196,-0.97794 -1.140931,-2.11887 -0.32598,-1.30392 -0.32598,-2.77083 v -0.16299 l 0.16299,-0.16299 h 8.312491 v 0 q 0,0 0,0 0,0 0,0 0,0 0,0 0,0 0,0 0,0 0,0 v 0 z m -0.65196,0 v -8.312491 0 q 0,0 0,0 0,0 0,0 0,0 0,0 0,0 0,0 0,0 0,0 v 0 h 8.31249 l 0.16299,0.16299 v 0.16299 q 0,1.46691 -0.48897,2.77083 -0.32598,1.14093 -1.14093,2.11887 -0.65196,0.97794 -1.6299,1.79289 -0.97794,0.651961 -2.28186,1.140931 -1.14093,0.32598 -2.60784,0.32598 h -0.16299 z m 0,-15.973021 0.16299,-0.16299 h 0.16299 q 1.46691,0 2.60784,0.48897 1.30392,0.32598 2.28186,1.14093 0.97794,0.65196 1.6299,1.6299 0.81495,0.97794 1.14093,2.28186 0.48897,1.14093 0.48897,2.60784 v 0.16299 l -0.16299,0.16299 h -8.31249 v 0 q 0,0 0,0 0,0 0,0 0,0 0,0 0,0 0,0 0,0 0,0 v 0 z m 0.65196,0 v 8.31249 0 q 0,0 0,0 0,0 0,0 0,0 0,0 0,0 0,0 0,0 0,0 v 0 h -8.312491 l -0.16299,-0.16299 v -0.16299 q 0,-1.46691 0.32598,-2.60784 0.488971,-1.30392 1.140931,-2.28186 0.81495,-0.97794 1.79289,-1.6299 0.97794,-0.81495 2.11887,-1.14093 1.30392,-0.48897 2.77083,-0.48897 h 0.16299 z m 16.299,97.46802 -0.16299,0.16299 h -0.16299 q -1.46691,0 -2.77083,-0.32598 -1.14093,-0.48897 -2.11887,-1.14093 -0.97794,-0.81495 -1.79289,-1.79289 -0.65196,-0.97794 -1.14093,-2.11887 -0.32598,-1.30392 -0.32598,-2.77083 v -0.16299 l 0.16299,-0.16299 h 8.31249 v 0 q 0,0 0,0 0,0 0,0 0,0 0,0 0,0 0,0 0,0 0,0 v 0 z m -0.65196,0 v -8.31249 0 q 0,0 0,0 0,0 0,0 0,0 0,0 0,0 0,0 0,0 0,0 v 0 h 8.312491 l 0.16299,0.16299 v 0.16299 q 0,1.46691 -0.48897,2.77083 -0.32598,1.14093 -1.14093,2.11887 -0.65196,0.97794 -1.629901,1.79289 -0.97794,0.65196 -2.28186,1.14093 -1.14093,0.32598 -2.60784,0.32598 h -0.16299 z m 0,-15.97302 0.16299,-0.16299 h 0.16299 q 1.46691,0 2.60784,0.48897 1.30392,0.32598 2.28186,1.14093 0.977941,0.65196 1.629901,1.6299 0.81495,0.97794 1.14093,2.28186 0.48897,1.14093 0.48897,2.60784 v 0.16299 l -0.16299,0.16299 h -8.312491 v 0 q 0,0 0,0 0,0 0,0 0,0 0,0 0,0 0,0 0,0 0,0 v 0 z m 0.65196,0 v 8.31249 0 q 0,0 0,0 0,0 0,0 0,0 0,0 0,0 0,0 0,0 0,0 v 0 h -8.31249 l -0.16299,-0.16299 v -0.16299 q 0,-1.46691 0.32598,-2.60784 0.48897,-1.30392 1.14093,-2.28186 0.81495,-0.97794 1.79289,-1.6299 0.97794,-0.81495 2.11887,-1.14093 1.30392,-0.48897 2.77083,-0.48897 h 0.16299 z m 0,-0.32598 -0.16299,0.16299 h -0.16299 q -1.46691,0 -2.77083,-0.32598 -1.14093,-0.48897 -2.11887,-1.14093 -0.97794,-0.81495 -1.79289,-1.79289 -0.65196,-0.97794 -1.14093,-2.11887 -0.32598,-1.30392 -0.32598,-2.77083 v -0.16299 l 0.16299,-0.16299 h 8.31249 v 0 q 0,0 0,0 0,0 0,0 0,0 0,0 0,0 0,0 0,0 0,0 v 0 z m -0.65196,0 v -8.31249 0 q 0,0 0,0 0,0 0,0 0,0 0,0 0,0 0,0 0,0 0,0 v 0 h 8.312491 l 0.16299,0.16299 v 0.16299 q 0,1.46691 -0.48897,2.77083 -0.32598,1.14093 -1.14093,2.11887 -0.65196,0.97794 -1.629901,1.79289 -0.97794,0.65196 -2.28186,1.14093 -1.14093,0.32598 -2.60784,0.32598 h -0.16299 z m 0,-15.97302 0.16299,-0.16299 h 0.16299 q 1.46691,0 2.60784,0.48897 1.30392,0.32598 2.28186,1.14093 0.977941,0.65196 1.629901,1.6299 0.81495,0.97794 1.14093,2.28186 0.48897,1.14093 0.48897,2.60784 v 0.16299 l -0.16299,0.16299 h -8.312491 v 0 q 0,0 0,0 0,0 0,0 0,0 0,0 0,0 0,0 0,0 0,0 v 0 z m 0.65196,0 v 8.31249 0 q 0,0 0,0 0,0 0,0 0,0 0,0 0,0 0,0 0,0 0,0 v 0 h -8.31249 l -0.16299,-0.16299 v -0.16299 q 0,-1.46691 0.32598,-2.60784 0.48897,-1.30392 1.14093,-2.28186 0.81495,-0.97794 1.79289,-1.6299 0.97794,-0.81495 2.11887,-1.14093 1.30392,-0.48897 2.77083,-0.48897 h 0.16299 z m 16.299001,15.97302 -0.16299,0.16299 h -0.16299 q -1.46691,0 -2.77083,-0.32598 -1.14093,-0.48897 -2.11887,-1.14093 -0.97794,-0.81495 -1.79289,-1.79289 -0.65196,-0.97794 -1.14093,-2.11887 -0.32598,-1.30392 -0.32598,-2.77083 v -0.16299 l 0.16299,-0.16299 h 8.31249 v 0 q 0,0 0,0 0,0 0,0 0,0 0,0 0,0 0,0 0,0 0,0 v 0 z m -0.65196,0 v -8.31249 0 q 0,0 0,0 0,0 0,0 0,0 0,0 0,0 0,0 0,0 0,0 v 0 h 8.31249 l 0.16299,0.16299 v 0.16299 q 0,1.46691 -0.48897,2.77083 -0.32598,1.14093 -1.14093,2.11887 -0.65196,0.97794 -1.6299,1.79289 -0.97794,0.65196 -2.28186,1.14093 -1.14093,0.32598 -2.60784,0.32598 h -0.16299 z m 0,-15.97302 0.16299,-0.16299 h 0.16299 q 1.46691,0 2.60784,0.48897 1.30392,0.32598 2.28186,1.14093 0.97794,0.65196 1.6299,1.6299 0.81495,0.97794 1.14093,2.28186 0.48897,1.14093 0.48897,2.60784 v 0.16299 l -0.16299,0.16299 h -8.31249 v 0 q 0,0 0,0 0,0 0,0 0,0 0,0 0,0 0,0 0,0 0,0 v 0 z m 0.65196,0 v 8.31249 0 q 0,0 0,0 0,0 0,0 0,0 0,0 0,0 0,0 0,0 0,0 v 0 h -8.31249 l -0.16299,-0.16299 v -0.16299 q 0,-1.46691 0.32598,-2.60784 0.48897,-1.30392 1.14093,-2.28186 0.81495,-0.97794 1.79289,-1.6299 0.97794,-0.81495 2.11887,-1.14093 1.30392,-0.48897 2.77083,-0.48897 h 0.16299 z m 0,-0.32598 -0.16299,0.16299 h -0.16299 q -1.46691,0 -2.77083,-0.32598 -1.14093,-0.48897 -2.11887,-1.14093 -0.97794,-0.81495 -1.79289,-1.79289 -0.65196,-0.97794 -1.14093,-2.11887 -0.32598,-1.30392 -0.32598,-2.77083 v -0.16299 l 0.16299,-0.16299 h 8.31249 v 0 q 0,0 0,0 0,0 0,0 0,0 0,0 0,0 0,0 0,0 0,0 v 0 z m -0.65196,0 v -8.31249 0 q 0,0 0,0 0,0 0,0 0,0 0,0 0,0 0,0 0,0 0,0 v 0 h 8.31249 l 0.16299,0.16299 v 0.16299 q 0,1.46691 -0.48897,2.77083 -0.32598,1.14093 -1.14093,2.11887 -0.65196,0.97794 -1.6299,1.79289 -0.97794,0.65196 -2.28186,1.14093 -1.14093,0.32598 -2.60784,0.32598 h -0.16299 z m 0,-15.973018 0.16299,-0.16299 h 0.16299 q 1.46691,0 2.60784,0.48897 1.30392,0.32598 2.28186,1.14093 0.97794,0.65196 1.6299,1.6299 0.81495,0.977938 1.14093,2.281858 0.48897,1.14093 0.48897,2.60784 v 0.16299 l -0.16299,0.16299 h -8.31249 v 0 q 0,0 0,0 0,0 0,0 0,0 0,0 0,0 0,0 0,0 0,0 v 0 z m 0.65196,0 v 8.312488 0 q 0,0 0,0 0,0 0,0 0,0 0,0 0,0 0,0 0,0 0,0 v 0 h -8.31249 l -0.16299,-0.16299 v -0.16299 q 0,-1.46691 0.32598,-2.60784 0.48897,-1.30392 1.14093,-2.281858 0.81495,-0.97794 1.79289,-1.6299 0.97794,-0.81495 2.11887,-1.14093 1.30392,-0.48897 2.77083,-0.48897 h 0.16299 z m 16.298996,-0.32598 -0.16299,0.16299 h -0.16299 q -1.46691,0 -2.77083,-0.32598 -1.14093,-0.48897 -2.118866,-1.14093 -0.97794,-0.81495 -1.79289,-1.79289 -0.65196,-0.977941 -1.14093,-2.118871 -0.32598,-1.30392 -0.32598,-2.77083 v -0.16299 l 0.16299,-0.16299 h 8.312486 v 0 q 0,0 0,0 0,0 0,0 0,0 0,0 0,0 0,0 0,0 0,0 v 0 z m -0.65196,0 v -8.312491 0 q 0,0 0,0 0,0 0,0 0,0 0,0 0,0 0,0 0,0 0,0 v 0 h 8.31249 l 0.16299,0.16299 v 0.16299 q 0,1.46691 -0.48897,2.77083 -0.32598,1.14093 -1.14093,2.118871 -0.65196,0.97794 -1.6299,1.79289 -0.97794,0.65196 -2.28186,1.14093 -1.14093,0.32598 -2.60784,0.32598 h -0.16299 z m 0,-15.973021 0.16299,-0.16299 h 0.16299 q 1.46691,0 2.60784,0.48897 1.30392,0.32598 2.28186,1.14093 0.97794,0.65196 1.6299,1.6299 0.81495,0.97794 1.14093,2.28186 0.48897,1.14093 0.48897,2.60784 v 0.16299 l -0.16299,0.16299 h -8.31249 v 0 q 0,0 0,0 0,0 0,0 0,0 0,0 0,0 0,0 0,0 0,0 v 0 z m 0.65196,0 v 8.31249 0 q 0,0 0,0 0,0 0,0 0,0 0,0 0,0 0,0 0,0 0,0 v 0 h -8.312486 l -0.16299,-0.16299 v -0.16299 q 0,-1.46691 0.32598,-2.60784 0.48897,-1.30392 1.14093,-2.28186 0.81495,-0.97794 1.79289,-1.6299 0.977936,-0.81495 2.118866,-1.14093 1.30392,-0.48897 2.77083,-0.48897 h 0.16299 z m 0,-0.32598 -0.16299,0.16299 h -0.16299 q -1.46691,0 -2.77083,-0.32598 -1.14093,-0.48897 -2.118866,-1.14093 -0.97794,-0.81495 -1.79289,-1.79289 -0.65196,-0.97794 -1.14093,-2.11887 -0.32598,-1.30392 -0.32598,-2.77083 v -0.16299 l 0.16299,-0.16299 h 8.312486 v 0 q 0,0 0,0 0,0 0,0 0,0 0,0 0,0 0,0 0,0 0,0 v 0 z m -0.65196,0 v -8.31249 0 q 0,0 0,0 0,0 0,0 0,0 0,0 0,0 0,0 0,0 0,0 v 0 h 8.31249 l 0.16299,0.16299 v 0.16299 q 0,1.46691 -0.48897,2.77083 -0.32598,1.14093 -1.14093,2.11887 -0.65196,0.97794 -1.6299,1.79289 -0.97794,0.65196 -2.28186,1.14093 -1.14093,0.32598 -2.60784,0.32598 h -0.16299 z m 0,-15.97302 0.16299,-0.16299 h 0.16299 q 1.46691,0 2.60784,0.48897 1.30392,0.32598 2.28186,1.14093 0.97794,0.65196 1.6299,1.6299 0.81495,0.97794 1.14093,2.28186 0.48897,1.14093 0.48897,2.60784 v 0.16299 l -0.16299,0.16299 h -8.31249 v 0 q 0,0 0,0 0,0 0,0 0,0 0,0 0,0 0,0 0,0 0,0 v 0 z m 0.65196,0 v 8.31249 0 q 0,0 0,0 0,0 0,0 0,0 0,0 0,0 0,0 0,0 0,0 v 0 h -8.312486 l -0.16299,-0.16299 v -0.16299 q 0,-1.46691 0.32598,-2.60784 0.48897,-1.30392 1.14093,-2.28186 0.81495,-0.97794 1.79289,-1.6299 0.977936,-0.81495 2.118866,-1.14093 1.30392,-0.48897 2.77083,-0.48897 h 0.16299 z m 0,-0.32598 -0.16299,0.16299 h -0.16299 q -1.46691,0 -2.77083,-0.32598 -1.14093,-0.48897 -2.118866,-1.140931 -0.97794,-0.81495 -1.79289,-1.79289 -0.65196,-0.97794 -1.14093,-2.11887 -0.32598,-1.30392 -0.32598,-2.77083 v -0.16299 l 0.16299,-0.16299 h 8.312486 v 0 q 0,0 0,0 0,0 0,0 0,0 0,0 0,0 0,0 0,0 0,0 v 0 z m -0.65196,0 v -8.312491 0 q 0,0 0,0 0,0 0,0 0,0 0,0 0,0 0,0 0,0 0,0 v 0 h 8.31249 l 0.16299,0.16299 v 0.16299 q 0,1.46691 -0.48897,2.77083 -0.32598,1.14093 -1.14093,2.11887 -0.65196,0.97794 -1.6299,1.79289 -0.97794,0.651961 -2.28186,1.140931 -1.14093,0.32598 -2.60784,0.32598 h -0.16299 z m 0,-15.973021 0.16299,-0.16299 h 0.16299 q 1.46691,0 2.60784,0.48897 1.30392,0.32598 2.28186,1.14093 0.97794,0.65196 1.6299,1.6299 0.81495,0.97794 1.14093,2.28186 0.48897,1.14093 0.48897,2.60784 v 0.16299 l -0.16299,0.16299 h -8.31249 v 0 q 0,0 0,0 0,0 0,0 0,0 0,0 0,0 0,0 0,0 0,0 v 0 z m 0.65196,0 v 8.31249 0 q 0,0 0,0 0,0 0,0 0,0 0,0 0,0 0,0 0,0 0,0 v 0 h -8.312486 l -0.16299,-0.16299 v -0.16299 q 0,-1.46691 0.32598,-2.60784 0.48897,-1.30392 1.14093,-2.28186 0.81495,-0.97794 1.79289,-1.6299 0.977936,-0.81495 2.118866,-1.14093 1.30392,-0.48897 2.77083,-0.48897 h 0.16299 z"
       id="text2"
       style="font-size:162.99px;font-family:'Bitcount Grid Double';-inkscape-font-specification:'Bitcount Grid Double';fill:#04ff00;stroke-width:1.69781"
       aria-label="V" />
    <path
       d="m 175,135 v 8 h -50 v -8 z"
       id="text1"
       style="font-size:109.027px;font-family:'Adwaita Sans';-inkscape-font-specification:'Adwaita Sans';fill:#04ff00;stroke-width:1.10607"
       aria-label="_" />
  </g>
</svg>
